<?xml version="1.0"?>
<svg version="1.1" xmlns="http://www.w3.org/2000/svg" width="145" height="60" style="border: dashed 2px #aaa"><path fill="#000000" d="M16.0126953125,25.94921875q0-0.7802734375,0.04150390625-1.5439453125t0.14111328125-1.5107421875q0.06640625-0.3818359375,0.58935546875-0.5478515625t0.87158203125-0.166015625l0.3984375,0.033203125q0.4814453125,0.06640625,0.97119140625-0.06640625t0.97119140625-0.1328125q1.12890625,0,2.5234375,0.2490234375t2.61474609375,0.8466796875t2.05029296875,1.56884765625t0.830078125,2.39892578125t-0.86328125,2.66455078125t-2.1748046875,2.1748046875t-2.822265625,1.46923828125t-2.7724609375,0.53125q0.1328125,3.2041015625,0.37353515625,6.3583984375t0.82177734375,6.30859375l0.033203125,0.2158203125q0,0.232421875-0.20751953125,0.3818359375t-0.48974609375,0.24072265625t-0.57275390625,0.12451171875t-0.47314453125,0.033203125q-0.4150390625,0-1.00439453125-0.15771484375t-0.72216796875-0.62255859375q-0.3818359375-1.4609375-0.59765625-3.21240234375t-0.3154296875-3.66064453125t-0.14111328125-3.84326171875t-0.04150390625-3.77685546875l0-3.7353515625q0-0.6142578125-0.0166015625-1.2783203125t-0.0166015625-1.3447265625z M19.150390625,23.259765625q0,2.2744140625,0.0498046875,4.54052734375t0.1162109375,4.54052734375q0.9794921875-0.19921875,2.00048828125-0.70556640625t1.8427734375-1.20361328125t1.328125-1.58544921875t0.50634765625-1.86767578125q0-0.8798828125-0.43994140625-1.5771484375t-1.13720703125-1.1953125q-0.6806640625-0.4814453125-1.5439453125-0.7470703125q-0.763671875-0.232421875-1.494140625-0.232421875l-0.1826171875,0z M31.413466796875,41.48828125q0-1.162109375,0.25732421875-2.7392578125t0.87158203125-2.98828125t1.61865234375-2.39892578125t2.53173828125-0.98779296875q1.427734375,0,2.1416015625,0.82177734375t0.7138671875,2.21630859375q0,0.9130859375-0.34033203125,2.00048828125t-0.97119140625,2.05859375t-1.494140625,1.61865234375t-1.92578125,0.6474609375l-0.431640625-0.033203125q0,0.4482421875,0.1328125,1.20361328125t0.39013671875,1.50244140625t0.6640625,1.3115234375t0.98779296875,0.564453125q0.8466796875,0,1.626953125-0.6806640625t1.4775390625-1.5107421875t1.294921875-1.5107421875t1.095703125-0.6806640625q0.265625,0,0.5478515625,0.0830078125t0.3154296875,0.46484375q0,0.232421875-0.12451171875,0.3818359375t-0.22412109375,0.33203125q-0.5146484375,0.8798828125-1.12060546875,1.6767578125t-1.36962890625,1.4443359375t-1.66845703125,1.02099609375t-2.00048828125,0.37353515625q-1.427734375,0-2.3740234375-0.50634765625t-1.52734375-1.361328125t-0.83837890625-1.9755859375t-0.25732421875-2.34912109375z M34.385146484375,40.2265625l0.46484375,0.4150390625q0.33203125,0.298828125,0.6640625,0.1328125t0.59765625-0.60595703125t0.48974609375-1.08740234375t0.3984375-1.328125t0.25732421875-1.328125t0.0830078125-1.0791015625l0-0.564453125t-0.0498046875-0.59765625t-0.17431640625-0.47314453125t-0.39013671875-0.24072265625q-0.0830078125-0.0166015625-0.1494140625-0.0166015625q-0.564453125,0-0.962890625,0.7138671875q-0.431640625,0.796875-0.697265625,1.93408203125t-0.3818359375,2.33251953125t-0.1494140625,1.79296875z M44.60623046875,30.265625q0-0.232421875,0.498046875-0.3984375t1.12890625-0.27392578125t1.22021484375-0.15771484375t0.80517578125-0.0830078125q0-0.4482421875,0.033203125-0.90478515625t0.1826171875-0.8134765625t0.47314453125-0.57275390625t0.90478515625-0.2158203125q0.4814453125,0,0.73046875,0.1162109375t0.53125,0.4814453125q0.06640625,0.19921875,0.06640625,0.3818359375l0,0.55615234375t-0.033203125,0.57275390625q0.6142578125-0.06640625,1.22021484375-0.15771484375t1.22021484375-0.09130859375q0.4482421875,0,0.6142578125,0.0166015625t0.33203125,0.3984375q0.1328125,0.3818359375-0.32373046875,0.5810546875t-1.095703125,0.298828125t-1.27001953125,0.1494140625t-0.763671875,0.0498046875q-0.19921875,2.85546875-0.40673828125,5.6611328125t-0.20751953125,5.6943359375q0,1.294921875,0.0830078125,2.6728515625t0.46484375,2.6064453125q0.099609375,0.3818359375,0.33203125,0.7138671875t0.232421875,0.7138671875q0,0.232421875-0.1826171875,0.365234375t-0.43994140625,0.22412109375t-0.5146484375,0.10791015625t-0.42333984375,0.0166015625q-1.0458984375,0-1.59375-0.7802734375t-0.78857421875-1.86767578125t-0.25732421875-2.23291015625t-0.0166015625-1.859375q0-1.4609375,0.05810546875-2.98828125t0.14111328125-3.021484375t0.232421875-2.921875t0.3486328125-2.65625q-0.5810546875,0.06640625-1.13720703125,0.1494140625t-1.13720703125,0.0830078125q-0.1328125,0-0.35693359375-0.0166015625t-0.42333984375-0.0830078125t-0.34033203125-0.1826171875t-0.14111328125-0.33203125z M57.334150390625,32.85546875q0-1.095703125,0.09130859375-2.39892578125t0.32373046875-2.61474609375t0.697265625-2.53173828125t1.1953125-2.1748046875t1.78466796875-1.51904296875t2.51513671875-0.564453125q1.162109375,0,2.1416015625,0.4482421875t1.7099609375,1.2119140625t1.13720703125,1.78466796875t0.40673828125,2.13330078125q0,0.298828125-0.40673828125,0.37353515625t-0.57275390625,0.07470703125q-0.298828125,0-0.57275390625-0.0498046875t-0.40673828125-0.3984375q-0.232421875-0.6474609375-0.48974609375-1.361328125t-0.630859375-1.30322265625t-0.92138671875-0.97119140625q-0.498046875-0.33203125-1.26171875-0.33203125l-0.1328125,0q-1.39453125,0.033203125-2.0751953125,0.99609375t-0.93798828125,2.3408203125t-0.25732421875,2.921875l0,2.7392578125q0,0.6806640625,0.0498046875,1.9755859375t0.24072265625,2.822265625t0.498046875,3.11279296875t0.830078125,2.888671875t1.25341796875,2.125t1.759765625,0.82177734375q0.9130859375,0,1.59375-0.630859375t1.17041015625-1.61865234375t0.830078125-2.2080078125t0.564453125-2.44873046875t0.34033203125-2.28271484375t0.1826171875-1.73486328125q-0.1826171875-0.0166015625-0.3486328125-0.0166015625q-0.7802734375,0-1.52734375,0.2490234375q-0.9462890625,0.2822265625-1.892578125,0.2822265625q-0.1328125,0-0.35693359375-0.0166015625t-0.42333984375-0.0830078125t-0.35693359375-0.19091796875t-0.15771484375-0.32373046875q0-0.3818359375,0.83837890625-0.6474609375t1.9091796875-0.45654296875t2.06689453125-0.27392578125t1.3115234375-0.0830078125q0.166015625,0,0.47314453125,0.033203125t0.6142578125,0.1162109375t0.52294921875,0.24072265625t0.2158203125,0.39013671875q0,0.19921875-0.1494140625,0.35693359375t-0.37353515625,0.24072265625t-0.45654296875,0.1162109375t-0.365234375,0.033203125q0.0166015625,0.3818359375,0.0166015625,0.7802734375q0,0.896484375-0.0498046875,1.9091796875q-0.0830078125,1.4609375-0.33203125,2.921875t-0.763671875,2.8388671875t-1.3115234375,2.43212890625t-1.96728515625,1.70166015625t-2.78076171875,0.6474609375q-1.759765625,0-2.9716796875-0.7470703125t-1.9755859375-1.9921875t-1.18701171875-2.822265625t-0.60595703125-3.22900390625t-0.22412109375-3.21240234375t-0.04150390625-2.822265625z M76.2710546875,36.1591796875q0-0.6806640625,0.24072265625-1.1455078125t1.02099609375-0.46484375q0.298828125,0,0.7470703125,0.09130859375t0.5146484375,0.45654296875q0.166015625,0.9794921875,0.1826171875,2.125t0.1162109375,2.158203125q0.3818359375-0.7470703125,0.9794921875-1.6103515625t1.361328125-1.59375t1.66015625-1.2119140625t1.826171875-0.4814453125q0.06640625,0,0.2490234375,0.0498046875t0.34033203125,0.14111328125t0.19091796875,0.20751953125t-0.1826171875,0.2158203125q-0.06640625,0.19921875-0.2822265625,0.24072265625t-0.3818359375,0.04150390625q-0.099609375,0-0.3154296875-0.0830078125q-1.228515625,0.6474609375-2.091796875,1.759765625t-1.4111328125,2.46533203125t-0.796875,2.85546875t-0.2490234375,2.93017578125q0,0.7138671875-0.32373046875,0.86328125t-1.03759765625,0.1494140625q-0.3818359375,0-0.80517578125-0.0830078125t-0.58935546875-0.53125q-0.298828125-0.9462890625-0.48974609375-2.1748046875t-0.29052734375-2.53173828125t-0.14111328125-2.56494140625t-0.04150390625-2.2744140625z M88.069287109375,40.8076171875q0-1.12890625,0.30712890625-2.1748046875t0.92138671875-1.86767578125t1.53564453125-1.3115234375t2.13330078125-0.48974609375q0.7470703125,0,1.65185546875,0.22412109375t1.70166015625,0.6640625t1.328125,1.12060546875t0.53125,1.560546875q0,0.4150390625-0.14111328125,0.630859375t-0.57275390625,0.2158203125l-0.1826171875-0.033203125q0.4814453125,1.294921875,0.830078125,2.65625t0.6806640625,2.72265625q0.1328125,0.265625,0.19921875,0.47314453125t0.06640625,0.40673828125q0,0.265625-0.1494140625,0.43994140625t-0.39013671875,0.25732421875t-0.498046875,0.1162109375t-0.45654296875,0.033203125q-0.7138671875,0-1.07080078125-0.2490234375t-0.5146484375-0.6806640625t-0.19091796875-0.97119140625t-0.1328125-1.08740234375q-0.19921875,0.6474609375-0.52294921875,1.26171875t-0.763671875,1.10400390625t-1.03759765625,0.7802734375t-1.3447265625,0.29052734375q-1.095703125,0-1.8427734375-0.630859375t-1.20361328125-1.55224609375t-0.6640625-1.96728515625t-0.20751953125-1.9423828125z M90.426708984375,40.5751953125q0,0.6142578125,0.0830078125,1.294921875t0.27392578125,1.3447265625t0.48974609375,1.25341796875t0.7470703125,1.03759765625q0.8134765625-0.8798828125,1.20361328125-2.1416015625t0.697265625-2.43212890625t0.697265625-2.0087890625t1.20361328125-0.83837890625q0.5146484375,0,0.86328125,0.1826171875q-0.166015625-0.4150390625-0.5478515625-0.80517578125t-0.85498046875-0.7138671875t-0.9794921875-0.53125t-0.95458984375-0.20751953125q-0.1328125,0-0.30712890625,0.04150390625t-0.27392578125,0.00830078125q-0.6806640625,0.19921875-1.12060546875,0.68896484375t-0.7138671875,1.15380859375t-0.39013671875,1.361328125t-0.1162109375,1.3115234375z M102.4988671875,36.64892578125q-0.04150390625-0.55615234375,0.06640625-1.02099609375t0.431640625-0.75537109375t1.03759765625-0.29052734375q0.166015625,0,0.40673828125,0.04150390625t0.47314453125,0.10791015625t0.39013671875,0.19921875t0.15771484375,0.365234375l0,1.8759765625q0.6474609375-0.7470703125,1.4111328125-1.07080078125t1.7431640625-0.32373046875q0.7470703125,0,1.4775390625,0.34033203125t1.3779296875,0.90478515625t1.12060546875,1.2451171875t0.68896484375,1.361328125q0.1328125-0.6142578125,0.298828125-1.50244140625t0.48974609375-1.70166015625t0.85498046875-1.39453125t1.4111328125-0.5810546875q0.9462890625,0,1.59375,0.6806640625t1.05419921875,1.76806640625t0.6142578125,2.43212890625t0.30712890625,2.65625t0.099609375,2.44873046875l0,1.78466796875q0,0.19921875-0.1494140625,0.32373046875t-0.37353515625,0.19091796875t-0.46484375,0.0830078125t-0.37353515625,0.0166015625q-0.5146484375,0-0.93798828125-0.15771484375t-0.42333984375-0.80517578125l0-1.494140625t-0.033203125-1.93408203125t-0.1162109375-2.0751953125t-0.2158203125-1.88427734375t-0.34033203125-1.361328125t-0.50634765625-0.53125q-0.4150390625,0-0.59765625,0.46484375t-0.30712890625,1.1787109375t-0.19091796875,1.5107421875t-0.1826171875,1.5107421875t-0.37353515625,1.17041015625t-0.70556640625,0.45654296875q-0.4814453125,0-0.8466796875-0.45654296875t-0.72216796875-1.13720703125t-0.7138671875-1.4609375t-0.78857421875-1.4609375q-0.431640625-0.697265625-0.9296875-1.12890625q-0.4482421875-0.4150390625-1.0126953125-0.3984375l-0.0830078125,0q-0.7470703125,0.033203125-1.17041015625,0.53955078125t-0.6474609375,1.23681640625t-0.27392578125,1.56884765625t-0.0498046875,1.46923828125q0,0.59765625,0.099609375,1.39453125q0.06640625,0.53125,0.06640625,1.0126953125q0,0.2490234375-0.0166015625,0.4814453125q-0.0498046875,0.697265625-0.37353515625,1.17041015625t-1.20361328125,0.47314453125q-0.33203125,0-0.830078125-0.06640625t-0.6640625-0.4482421875q-0.3818359375-0.6806640625-0.5810546875-1.71826171875t-0.298828125-2.1416015625t-0.1162109375-2.19140625t-0.0166015625-1.86767578125q0-0.5478515625-0.04150390625-1.10400390625z"/><path fill="#" d=""/></svg>
